# Blender v2.77 (sub 0) OBJ File: ''
# www.blender.org
mtllib estrellica-min-litle.mtl
o pCylinder1
v 1.137975 0.331359 0.200923
v 0.004310 0.045833 0.000084
v 0.312514 0.328802 0.176387
v -0.010137 1.152809 0.166011
v -0.322039 0.324043 0.157529
v -1.145855 0.314224 0.133049
v -0.513619 -0.281191 0.152410
v -0.699653 -1.025497 0.147589
v 0.002531 -0.650485 0.168105
v 0.711832 -1.014907 0.189537
v 0.513109 -0.273489 0.182924
v -0.005218 0.045885 0.330092
vt 0.3750 0.3125
vt 0.5000 0.6884
vt 0.4000 0.3125
vt 0.4250 0.3125
vt 0.4500 0.3125
vt 0.4750 0.3125
vt 0.5000 0.3125
vt 0.5250 0.3125
vt 0.5500 0.3125
vt 0.5750 0.3125
vt 0.6000 0.3125
vt 0.6250 0.3125
vt 0.6264 0.0644
vt 0.5000 0.1562
vt 0.6562 0.1562
vt 0.6264 0.2481
vt 0.5483 0.3049
vt 0.4517 0.3049
vt 0.3736 0.2481
vt 0.3438 0.1562
vt 0.3736 0.0644
vt 0.4517 0.0076
vt 0.5483 0.0076
vn 0.0240 0.5097 -0.8600
vn 0.3905 0.1414 -0.9097
vn -0.3345 0.1354 -0.9326
vn 0.0195 0.5096 -0.8602
vn -0.1584 -0.1996 -0.9670
vn -0.3324 0.0892 -0.9389
vn 0.1521 -0.2322 -0.9607
vn -0.0907 -0.2334 -0.9682
vn 0.3896 0.0962 -0.9160
vn 0.2191 -0.1979 -0.9554
vn 0.1572 -0.1913 0.9689
vn 0.3260 0.0958 0.9405
vn -0.1451 -0.2257 0.9633
vn 0.0916 -0.2246 0.9701
vn -0.3790 0.0888 0.9211
vn -0.2109 -0.1928 0.9583
vn -0.0317 0.5006 0.8651
vn -0.3808 0.1339 0.9149
vn 0.3274 0.1400 0.9345
vn -0.0273 0.5007 0.8652
usemtl initialShadingGroup
s 1
f 1/1/1 2/2/1 3/3/1
f 3/3/2 2/2/2 4/4/2
f 4/4/3 2/2/3 5/5/3
f 5/5/4 2/2/4 6/6/4
f 6/6/5 2/2/5 7/7/5
f 7/7/6 2/2/6 8/8/6
f 8/8/7 2/2/7 9/9/7
f 9/9/8 2/2/8 10/10/8
f 10/10/9 2/2/9 11/11/9
f 11/11/10 2/2/10 1/12/10
f 1/13/11 12/14/11 11/15/11
f 11/15/12 12/14/12 10/16/12
f 10/16/13 12/14/13 9/17/13
f 9/17/14 12/14/14 8/18/14
f 8/18/15 12/14/15 7/19/15
f 7/19/16 12/14/16 6/20/16
f 6/20/17 12/14/17 5/21/17
f 5/21/18 12/14/18 4/22/18
f 4/22/19 12/14/19 3/23/19
f 3/23/20 12/14/20 1/13/20
